<svg width="20" height="20" viewBox="0 0 102 82" fill="none" xmlns="http://www.w3.org/2000/svg">
<path fill-rule="evenodd" clip-rule="evenodd" d="M91.8703 60.8428H44.8688L41.4753 50.7131H86.8055C89.034 50.7131 90.8574 49.2443 91.5665 47.2184H91.6171L101.747 16.8294H101.696C101.848 16.3229 102 15.8164 102 15.2593C102 12.4737 99.7208 10.1945 96.9352 10.1945H28.0029L25.7743 3.50891H25.7237C25.0146 1.53363 23.1913 0.0648274 20.9628 0.0648274H5.76828C2.98263 0.0648274 0.703453 2.344 0.703453 5.12965C0.703453 7.91531 2.98263 10.1945 5.76828 10.1945H17.3161L34.182 60.8428H26.0276C20.4563 60.8428 15.8979 65.4011 15.8979 70.9724C15.8979 76.5437 20.4563 81.1021 26.0276 81.1021C31.5989 81.1021 36.1572 76.5437 36.1572 70.9724H81.7407C81.7407 76.5437 86.299 81.1021 91.8703 81.1021C97.4417 81.1021 102 76.5437 102 70.9724C102 65.4011 97.4417 60.8428 91.8703 60.8428ZM38.1325 40.5834H58.7035H83.1588H38.1325Z" fill="#5B1CD1"/>
</svg>
