<svg width="15" height="26" viewBox="0 0 20 26" fill="none" xmlns="http://www.w3.org/2000/svg">
<path fill-rule="evenodd" clip-rule="evenodd" d="M18.75 1.75H12.5C12.5 1.0625 11.9375 0.5 11.25 0.5H8.75C8.0625 0.5 7.5 1.0625 7.5 1.75H1.25C0.5625 1.75 0 2.3125 0 3V4.25H20V3C20 2.3125 19.4375 1.75 18.75 1.75ZM19.375 5.5H0.625C0.275 5.5 0 5.775 0 6.125C0 6.475 0.275 6.75 0.625 6.75H1.25V24.25C1.25 24.9375 1.8125 25.5 2.5 25.5H17.5C18.1875 25.5 18.75 24.9375 18.75 24.25V6.75H19.375C19.725 6.75 20 6.475 20 6.125C20 5.775 19.725 5.5 19.375 5.5ZM6.25 20.5C6.25 21.1875 5.6875 21.75 5 21.75C4.3125 21.75 3.75 21.1875 3.75 20.5V10.5C3.75 9.8125 4.3125 9.25 5 9.25C5.6875 9.25 6.25 9.8125 6.25 10.5V20.5ZM11.25 20.5C11.25 21.1875 10.6875 21.75 10 21.75C9.3125 21.75 8.75 21.1875 8.75 20.5V10.5C8.75 9.8125 9.3125 9.25 10 9.25C10.6875 9.25 11.25 9.8125 11.25 10.5V20.5ZM16.25 20.5C16.25 21.1875 15.6875 21.75 15 21.75C14.3125 21.75 13.75 21.1875 13.75 20.5V10.5C13.75 9.8125 14.3125 9.25 15 9.25C15.6875 9.25 16.25 9.8125 16.25 10.5V20.5Z" fill="#5B1CD1"/>
</svg>
