<?xml version="1.0" standalone="no"?>
<!DOCTYPE svg PUBLIC "-//W3C//DTD SVG 20010904//EN"
 "http://www.w3.org/TR/2001/REC-SVG-20010904/DTD/svg10.dtd">
<svg version="1.0" xmlns="http://www.w3.org/2000/svg"
 width="25.000000pt" height="904.000000pt" viewBox="0 0 1280.000000 904.000000"
 preserveAspectRatio="xMidYMid meet">
<metadata>
Created by potrace 1.15, written by Peter Selinger 2001-2017
</metadata>
<g transform="translate(0.000000,904.000000) scale(0.100000,-0.100000)"
fill="rgb(91, 28, 209)" stroke="none">
<path d="M6100 8589 c-499 -34 -1008 -150 -1415 -324 -150 -64 -417 -200 -549
-280 -453 -273 -890 -684 -1213 -1140 -346 -489 -577 -1061 -682 -1690 -90
-538 -88 -1161 5 -1685 116 -651 365 -1212 751 -1695 182 -229 476 -507 723
-686 574 -417 1282 -658 2105 -719 181 -13 648 -13 868 0 575 35 1098 136
1520 294 86 32 128 54 160 83 23 21 57 45 75 52 l32 13 0 310 c0 291 -1 310
-17 305 -22 -6 -167 -59 -323 -117 -532 -197 -1150 -290 -1840 -277 -383 8
-647 39 -944 114 -330 83 -654 219 -926 391 -216 136 -513 400 -683 604 -407
493 -629 1030 -724 1753 -26 202 -26 838 0 1035 88 661 266 1147 594 1630 213
311 492 601 793 822 223 163 566 329 860 416 372 110 801 156 1236 134 427
-23 714 -73 1044 -181 458 -152 805 -365 1131 -698 452 -460 714 -1014 805
-1703 22 -168 30 -624 15 -817 -48 -596 -240 -1100 -537 -1413 -167 -175 -347
-260 -553 -260 -184 0 -303 61 -438 227 -36 43 -90 85 -179 139 -18 11 -17 13
10 23 16 7 46 26 67 44 20 18 52 41 70 52 18 11 36 31 40 45 7 25 25 240 54
645 9 116 20 260 25 320 6 61 17 199 24 309 8 109 19 203 25 209 7 7 11 64 12
147 0 74 6 214 14 310 7 96 23 310 35 475 12 165 25 316 31 336 l9 36 257 52
c335 67 399 84 431 110 15 12 50 37 77 55 67 45 76 57 77 104 1 68 -45 112
-116 112 -36 0 -431 -78 -682 -135 -19 -4 -23 1 -28 39 -7 47 -34 82 -73 97
-38 14 -66 11 -114 -14 -24 -13 -56 -27 -71 -30 -36 -9 -83 -50 -98 -86 -15
-37 0 -33 -335 -76 -148 -19 -517 -66 -820 -104 -1254 -160 -1753 -223 -2170
-276 -741 -93 -738 -92 -747 -108 -4 -9 -21 -18 -38 -22 -16 -3 -41 -15 -55
-26 -33 -27 -33 -59 5 -262 34 -176 191 -1021 271 -1451 28 -148 54 -277 59
-285 4 -9 18 -25 30 -36 22 -20 41 -20 1783 -23 1993 -3 1797 7 1797 -87 0
-29 -3 -80 -6 -113 l-7 -62 -1721 -2 -1721 -3 -40 -22 c-22 -12 -61 -31 -88
-43 -54 -25 -77 -60 -77 -118 0 -47 29 -88 76 -108 28 -12 292 -14 1591 -15
857 -1 1569 -4 1583 -8 41 -11 29 -32 -43 -76 -140 -85 -239 -216 -268 -352
-25 -121 5 -271 72 -370 146 -213 410 -295 667 -207 l84 28 108 -22 c308 -64
626 -46 915 53 183 63 438 214 625 371 294 246 558 622 713 1014 236 596 292
1398 147 2120 -177 883 -681 1621 -1465 2145 -540 361 -1151 571 -1855 640
-200 19 -655 27 -840 14z m1718 -2477 c10 -13 12 -37 7 -97 -3 -44 -14 -195
-25 -335 -41 -562 -42 -571 -62 -581 -10 -5 -118 -8 -255 -7 l-238 3 -2 50
c-15 416 -24 908 -17 915 5 5 121 23 259 40 137 17 252 33 255 36 10 10 65 -6
78 -24z m-983 -122 c16 -18 19 -51 26 -297 4 -153 11 -349 15 -435 l7 -157
-24 -6 c-13 -3 -226 -4 -474 -3 l-450 3 -7 110 c-3 61 -11 166 -17 235 -16
192 -25 460 -16 460 16 0 650 81 740 94 135 21 179 20 200 -4z m-1341 -163
c20 -15 21 -19 51 -427 19 -264 19 -296 -1 -304 -9 -3 -154 -6 -324 -6 -285 0
-309 1 -313 18 -3 9 -8 60 -12 112 -3 52 -12 163 -20 245 -20 216 -24 281 -17
292 6 10 495 78 583 82 19 0 43 -5 53 -12z m-1030 -136 c21 -23 29 -80 52
-370 14 -180 14 -215 3 -222 -8 -5 -85 -9 -171 -9 -155 0 -158 0 -162 23 -3
12 -17 85 -31 162 -15 77 -35 184 -46 237 -10 53 -19 110 -19 126 l0 29 138
20 c182 27 215 28 236 4z m75 -930 c23 -23 27 -43 41 -201 33 -375 35 -421 20
-430 -16 -10 -230 -14 -230 -5 0 3 -7 38 -15 78 -15 75 -40 212 -80 432 -13
71 -21 133 -19 137 3 5 63 8 135 8 114 0 131 -2 148 -19z m1011 9 c39 -21 39
-19 74 -577 3 -56 2 -62 -18 -67 -11 -3 -155 -6 -318 -6 l-297 0 -5 33 c-3 17
-7 66 -10 107 -3 41 -12 149 -21 240 -8 91 -15 191 -15 223 l0 57 296 0 c182
0 303 -4 314 -10z m1314 -13 c21 -22 23 -34 30 -183 12 -301 10 -435 -5 -445
-8 -5 -210 -9 -450 -9 l-436 0 -7 78 c-7 88 -23 315 -33 475 l-6 107 442 0
442 0 23 -23z m834 7 c28 -19 28 -64 3 -392 -13 -177 -21 -236 -32 -243 -8 -5
-99 -8 -204 -6 l-190 2 -8 314 c-4 173 -6 320 -3 328 8 21 403 19 434 -3z"/>
<path d="M4765 3017 c-173 -57 -295 -149 -351 -262 -26 -55 -29 -69 -29 -165
0 -98 2 -109 31 -165 45 -85 115 -151 204 -194 72 -34 80 -36 180 -35 129 0
185 20 297 103 112 83 147 122 185 198 30 61 33 76 33 158 0 82 -3 97 -32 156
-41 83 -111 150 -201 192 -92 43 -213 48 -317 14z"/>
</g>
</svg>
